<svg xmlns="http://www.w3.org/2000/svg" xmlns:xlink="http://www.w3.org/1999/xlink" width="500" zoomAndPan="magnify" viewBox="0 0 375 374.999991" height="500" preserveAspectRatio="xMidYMid meet" version="1.0"><defs><clipPath id="253d01ab52"><path d="M 154 75.054688 L 181 75.054688 L 181 168 L 154 168 Z M 154 75.054688 " clip-rule="nonzero"/></clipPath><clipPath id="227067cfa0"><path d="M 51 179 L 187 179 L 187 299.988281 L 51 299.988281 Z M 51 179 " clip-rule="nonzero"/></clipPath><clipPath id="4421fb30d7"><path d="M 47.703125 175.488281 L 190.203125 175.488281 L 190.203125 299.988281 L 47.703125 299.988281 Z M 47.703125 175.488281 " clip-rule="nonzero"/></clipPath></defs><g clip-path="url(#253d01ab52)"><path fill="#d14c46" d="M 164.953125 75.613281 L 164.882812 75.613281 C 164.8125 75.613281 164.742188 75.613281 164.742188 75.683594 C 163.757812 75.964844 162.914062 76.246094 162.070312 76.667969 C 160.808594 77.230469 159.683594 78.074219 158.699219 78.984375 L 158.558594 79.125 C 158.070312 79.617188 157.578125 80.179688 157.15625 80.742188 C 156.875 81.164062 156.734375 81.65625 156.734375 82.144531 C 155.398438 88.117188 154.699219 94.367188 154.558594 100.617188 C 154.488281 106.9375 155.046875 113.609375 156.382812 120.421875 C 158.628906 132.011719 162.914062 143.320312 169.164062 154.0625 C 169.9375 156.875 170.78125 159.753906 171.765625 162.5625 C 172.113281 163.476562 172.464844 164.527344 172.957031 165.792969 C 173.167969 166.355469 173.449219 166.847656 173.941406 167.128906 C 174.433594 167.40625 175.066406 167.476562 175.625 167.335938 C 176.1875 167.199219 176.679688 166.847656 176.960938 166.355469 C 177.242188 165.933594 177.382812 165.230469 177.171875 164.667969 C 176.257812 162.210938 175.347656 159.683594 174.574219 157.152344 C 175.066406 156.453125 175.136719 155.46875 174.714844 154.765625 C 174.222656 153.992188 173.730469 153.152344 173.238281 152.378906 C 172.113281 147.882812 171.203125 143.25 170.640625 138.613281 C 169.515625 129.203125 169.585938 119.789062 170.921875 110.589844 C 170.921875 110.589844 170.921875 110.519531 170.921875 110.519531 L 170.921875 110.238281 C 172.183594 101.8125 174.433594 93.734375 177.664062 86.148438 C 178.085938 85.097656 178.578125 84.042969 179.136719 82.917969 C 179.207031 82.777344 179.277344 82.566406 179.347656 82.425781 C 179.488281 82.285156 179.628906 82.214844 179.699219 82.074219 C 180.050781 81.585938 180.191406 81.023438 180.121094 80.460938 C 180.050781 79.898438 179.769531 79.40625 179.277344 78.984375 L 178.996094 78.703125 L 178.925781 78.636719 C 178.925781 78.636719 178.855469 78.566406 178.855469 78.566406 C 178.789062 78.496094 178.648438 78.425781 178.578125 78.355469 C 178.578125 78.355469 178.507812 78.285156 178.507812 78.285156 C 176.539062 76.878906 174.292969 75.894531 171.835938 75.472656 C 171.554688 75.402344 171.34375 75.402344 171.132812 75.332031 L 170.992188 75.332031 L 170.710938 75.261719 C 170.640625 75.261719 170.570312 75.261719 170.5 75.261719 C 168.601562 75.054688 166.707031 75.195312 164.953125 75.613281 Z M 164.953125 75.613281 " fill-opacity="1" fill-rule="nonzero"/></g><path fill="#f14d45" d="M 207.160156 110.238281 C 191.21875 110.238281 175.765625 119.441406 164.742188 135.59375 C 155.117188 129.765625 144.792969 126.742188 135.101562 126.742188 C 128.640625 126.742188 122.460938 128.078125 116.773438 130.746094 C 103.078125 137.066406 93.527344 150.269531 89.945312 167.898438 C 86.363281 185.527344 89.101562 205.402344 97.667969 223.875 C 111.433594 253.511719 137.5625 273.457031 162.773438 273.457031 C 169.234375 273.457031 175.414062 272.125 181.105469 269.453125 C 185.390625 267.488281 189.320312 264.75 192.832031 261.449219 C 196.203125 262.433594 199.785156 263.0625 203.367188 263.203125 C 203.859375 263.203125 204.351562 263.203125 204.84375 263.203125 C 219.664062 263.203125 233.777344 255.480469 244.59375 241.503906 C 255.480469 227.527344 261.800781 208.703125 262.503906 188.6875 C 263.207031 168.320312 258.007812 148.9375 247.824219 134.117188 C 237.640625 119.300781 223.734375 110.871094 208.636719 110.308594 C 208.144531 110.238281 207.652344 110.238281 207.160156 110.238281 Z M 207.160156 110.238281 " fill-opacity="1" fill-rule="nonzero"/><path fill="#d14c46" d="M 240.589844 172.535156 C 234.339844 204.5625 208.917969 226.542969 183.914062 221.628906 C 176.257812 220.152344 169.445312 216.21875 163.96875 210.671875 C 152.871094 228.929688 134.539062 239.464844 116.492188 235.953125 C 110.171875 234.691406 104.410156 231.882812 99.566406 227.738281 C 113.753906 255.199219 138.683594 273.316406 162.703125 273.316406 C 169.164062 273.316406 175.347656 271.984375 181.035156 269.316406 C 185.320312 267.347656 189.25 264.609375 192.691406 261.308594 C 196.132812 262.292969 199.644531 262.921875 203.226562 263.0625 C 203.71875 263.0625 204.210938 263.0625 204.703125 263.0625 C 219.523438 263.0625 233.566406 255.339844 244.453125 241.363281 C 255.339844 227.386719 261.660156 208.632812 262.363281 188.546875 C 263.066406 168.179688 257.867188 148.796875 247.683594 133.976562 C 240.800781 124.003906 232.234375 116.839844 222.753906 113.1875 C 237.710938 125.128906 245.367188 148.234375 240.589844 172.535156 Z M 240.589844 172.535156 " fill-opacity="1" fill-rule="nonzero"/><path fill="#d14c46" d="M 197.539062 272.6875 C 199.226562 274.019531 201.050781 275.355469 202.875 276.546875 C 238.0625 299.9375 285.679688 290.382812 309.066406 255.199219 C 327.117188 228.019531 325.570312 193.535156 307.734375 168.390625 C 271.070312 203.15625 234.269531 237.921875 197.539062 272.6875 Z M 197.539062 272.6875 " fill-opacity="1" fill-rule="nonzero"/><path fill="#fffae6" d="M 205.476562 265.171875 C 206.457031 265.945312 207.441406 266.644531 208.496094 267.347656 C 238.273438 287.152344 278.515625 279.078125 298.25 249.296875 C 313.140625 226.894531 312.226562 198.589844 298.179688 177.453125 C 267.28125 206.667969 236.378906 235.953125 205.476562 265.171875 Z M 205.476562 265.171875 " fill-opacity="1" fill-rule="nonzero"/><path fill="#31bf58" d="M 154.699219 119.230469 L 150.695312 120.421875 L 138.542969 124.074219 C 138.332031 124.144531 138.121094 124.144531 137.914062 124.214844 C 137.210938 124.355469 136.507812 124.425781 135.804688 124.425781 C 135.101562 124.425781 134.472656 124.425781 133.769531 124.355469 C 133.066406 124.285156 132.433594 124.144531 131.730469 124.003906 C 131.03125 123.863281 130.398438 123.652344 129.765625 123.371094 C 129.0625 123.089844 128.429688 122.8125 127.867188 122.460938 C 127.308594 122.179688 126.816406 121.828125 126.253906 121.476562 C 125.621094 120.984375 125.128906 120.5625 124.636719 120.140625 C 124.148438 119.71875 123.65625 119.230469 123.234375 118.597656 C 122.8125 118.035156 122.390625 117.472656 122.039062 116.910156 C 121.828125 116.558594 121.617188 116.207031 121.40625 115.859375 L 116.421875 99.421875 L 115.507812 96.402344 C 118.878906 95.351562 122.25 94.296875 125.480469 93.3125 L 131.730469 91.417969 C 131.941406 91.347656 132.152344 91.347656 132.363281 91.277344 C 133.066406 91.136719 133.769531 91.066406 134.472656 91.066406 C 135.171875 91.066406 135.804688 91.066406 136.507812 91.136719 C 137.210938 91.207031 137.914062 91.347656 138.542969 91.488281 C 139.246094 91.699219 139.949219 91.839844 140.511719 92.121094 C 141.214844 92.398438 141.773438 92.679688 142.40625 92.960938 C 142.898438 93.242188 143.460938 93.59375 144.023438 93.945312 C 144.65625 94.4375 145.144531 94.859375 145.636719 95.28125 C 146.128906 95.769531 146.621094 96.261719 147.042969 96.824219 C 147.535156 97.386719 147.886719 97.949219 148.234375 98.511719 C 148.445312 98.863281 148.65625 99.210938 148.867188 99.5625 L 149.992188 103.285156 L 150.625 105.394531 L 154.769531 118.949219 Z M 154.699219 119.230469 " fill-opacity="1" fill-rule="nonzero"/><path fill="#ffffff" d="M 105.746094 153.082031 C 103.21875 157.503906 101.25 162.28125 99.917969 167.199219 C 98.652344 171.902344 97.949219 176.820312 97.667969 181.664062 C 97.527344 184.125 99.847656 186.230469 102.234375 186.230469 C 103.429688 186.230469 104.621094 185.738281 105.464844 184.894531 C 106.378906 183.984375 106.730469 182.929688 106.800781 181.664062 C 106.871094 180.050781 107.011719 178.433594 107.222656 176.75 C 107.921875 172.042969 109.117188 167.40625 110.941406 162.984375 C 111.714844 161.15625 112.628906 159.402344 113.613281 157.644531 C 114.875 155.46875 114.101562 152.660156 111.996094 151.394531 C 111.292969 150.972656 110.523438 150.761719 109.75 150.761719 C 108.132812 150.832031 106.589844 151.675781 105.746094 153.082031 Z M 105.746094 153.082031 " fill-opacity="1" fill-rule="nonzero"/><path fill="#ffffff" d="M 100.269531 198.308594 C 100.269531 200.769531 102.375 202.875 104.832031 202.875 C 107.289062 202.875 109.398438 200.769531 109.398438 198.308594 C 109.398438 195.851562 107.289062 193.746094 104.832031 193.746094 C 102.375 193.746094 100.269531 195.851562 100.269531 198.308594 Z M 100.269531 198.308594 " fill-opacity="1" fill-rule="nonzero"/><path fill="#d14c46" d="M 251.195312 245.714844 C 254.707031 245.855469 258.148438 245.996094 261.660156 246.136719 C 260.257812 241.082031 258.78125 236.023438 257.375 231.039062 C 255.339844 235.882812 253.234375 240.800781 251.195312 245.714844 Z M 251.195312 245.714844 " fill-opacity="1" fill-rule="nonzero"/><path fill="#d14c46" d="M 259.554688 250 C 261.941406 248.667969 262.433594 246.066406 260.675781 244.242188 C 258.921875 242.414062 255.621094 241.996094 253.234375 243.328125 C 250.84375 244.664062 250.355469 247.261719 252.109375 249.085938 C 253.792969 250.984375 257.167969 251.335938 259.554688 250 Z M 259.554688 250 " fill-opacity="1" fill-rule="nonzero"/><path fill="#d14c46" d="M 277.464844 231.179688 C 277.324219 227.667969 277.253906 224.226562 277.113281 220.714844 C 272.195312 222.46875 267.28125 224.296875 262.292969 226.050781 C 267.351562 227.808594 272.40625 229.492188 277.464844 231.179688 Z M 277.464844 231.179688 " fill-opacity="1" fill-rule="nonzero"/><path fill="#d14c46" d="M 281.183594 222.609375 C 279.710938 220.363281 277.113281 220.011719 275.355469 221.90625 C 273.601562 223.804688 273.53125 227.105469 275.003906 229.421875 C 276.480469 231.671875 279.078125 232.019531 280.835938 230.125 C 282.589844 228.230469 282.730469 224.859375 281.183594 222.609375 Z M 281.183594 222.609375 " fill-opacity="1" fill-rule="nonzero"/><g clip-path="url(#227067cfa0)"><path fill="#d14c46" d="M 118.878906 299.910156 L 59.457031 232.601562 C 47.714844 219.289062 48.980469 198.984375 62.289062 187.234375 C 75.59375 175.492188 95.898438 176.75 107.652344 190.0625 L 118.878906 202.785156 L 130.105469 190.0625 C 141.855469 176.75 162.164062 175.492188 175.464844 187.234375 C 188.769531 198.984375 190.042969 219.289062 178.292969 232.601562 L 118.878906 299.910156 " fill-opacity="1" fill-rule="nonzero"/></g><g clip-path="url(#4421fb30d7)"><path stroke-linecap="butt" transform="matrix(0.0679945, 0, 0, -0.0679945, -26.819283, 384.106967)" fill="none" stroke-linejoin="miter" d="M 1440.416143 2216.30879 L 2142.793714 2216.30879 L 2269.986904 2625.004523 L 2415.391585 1845.587175 L 2569.815837 2233.198942 L 2920.774824 2233.198942 " stroke="#ffffff" stroke-width="72.535004" stroke-opacity="1" stroke-miterlimit="10"/></g><path fill="#fabb4c" d="M 184.050781 277.027344 L 49.136719 277.027344 L 49.136719 255.054688 L 184.050781 255.054688 L 184.050781 277.027344 " fill-opacity="1" fill-rule="nonzero"/><path fill="#3d4176" d="M 57.492188 262.585938 L 57.492188 255.054688 L 49.136719 255.054688 L 49.136719 277.027344 L 57.492188 277.027344 L 57.492188 269.726562 C 52.203125 269.453125 52.203125 262.867188 57.492188 262.585938 " fill-opacity="1" fill-rule="nonzero"/><path stroke-linecap="butt" transform="matrix(0.0679945, 0, 0, -0.0679945, -26.819283, 384.106967)" fill="none" stroke-linejoin="miter" d="M 1305.007675 1897.981118 L 1305.007675 1846.391468 " stroke="#3d4176" stroke-width="20" stroke-opacity="1" stroke-miterlimit="10"/><path stroke-linecap="butt" transform="matrix(0.0679945, 0, 0, -0.0679945, -26.819283, 384.106967)" fill="none" stroke-linejoin="miter" d="M 1354.988739 1897.981118 L 1354.988739 1846.391468 " stroke="#3d4176" stroke-width="20" stroke-opacity="1" stroke-miterlimit="10"/><path stroke-linecap="butt" transform="matrix(0.0679945, 0, 0, -0.0679945, -26.819283, 384.106967)" fill="none" stroke-linejoin="miter" d="M 1405.027252 1897.981118 L 1405.027252 1846.391468 " stroke="#3d4176" stroke-width="20" stroke-opacity="1" stroke-miterlimit="10"/><path stroke-linecap="butt" transform="matrix(0.0679945, 0, 0, -0.0679945, -26.819283, 384.106967)" fill="none" stroke-linejoin="miter" d="M 1455.008316 1897.981118 L 1455.008316 1846.391468 " stroke="#3d4176" stroke-width="20" stroke-opacity="1" stroke-miterlimit="10"/><path stroke-linecap="butt" transform="matrix(0.0679945, 0, 0, -0.0679945, -26.819283, 384.106967)" fill="none" stroke-linejoin="miter" d="M 1504.98938 1897.981118 L 1504.98938 1797.272147 " stroke="#3d4176" stroke-width="20" stroke-opacity="1" stroke-miterlimit="10"/><path stroke-linecap="butt" transform="matrix(0.0679945, 0, 0, -0.0679945, -26.819283, 384.106967)" fill="none" stroke-linejoin="miter" d="M 1557.498221 1897.981118 L 1557.498221 1846.391468 " stroke="#3d4176" stroke-width="20" stroke-opacity="1" stroke-miterlimit="10"/><path stroke-linecap="butt" transform="matrix(0.0679945, 0, 0, -0.0679945, -26.819283, 384.106967)" fill="none" stroke-linejoin="miter" d="M 1607.479285 1897.981118 L 1607.479285 1846.391468 " stroke="#3d4176" stroke-width="20" stroke-opacity="1" stroke-miterlimit="10"/><path stroke-linecap="butt" transform="matrix(0.0679945, 0, 0, -0.0679945, -26.819283, 384.106967)" fill="none" stroke-linejoin="miter" d="M 1657.517799 1897.981118 L 1657.517799 1846.391468 " stroke="#3d4176" stroke-width="20" stroke-opacity="1" stroke-miterlimit="10"/><path stroke-linecap="butt" transform="matrix(0.0679945, 0, 0, -0.0679945, -26.819283, 384.106967)" fill="none" stroke-linejoin="miter" d="M 1707.498862 1897.981118 L 1707.498862 1846.391468 " stroke="#3d4176" stroke-width="20" stroke-opacity="1" stroke-miterlimit="10"/><path stroke-linecap="butt" transform="matrix(0.0679945, 0, 0, -0.0679945, -26.819283, 384.106967)" fill="none" stroke-linejoin="miter" d="M 1757.479926 1897.981118 L 1757.479926 1797.272147 " stroke="#3d4176" stroke-width="20" stroke-opacity="1" stroke-miterlimit="10"/><path stroke-linecap="butt" transform="matrix(0.0679945, 0, 0, -0.0679945, -26.819283, 384.106967)" fill="none" stroke-linejoin="miter" d="M 1809.988768 1897.981118 L 1809.988768 1846.391468 " stroke="#3d4176" stroke-width="20" stroke-opacity="1" stroke-miterlimit="10"/><path stroke-linecap="butt" transform="matrix(0.0679945, 0, 0, -0.0679945, -26.819283, 384.106967)" fill="none" stroke-linejoin="miter" d="M 1860.027281 1897.981118 L 1860.027281 1846.391468 " stroke="#3d4176" stroke-width="20" stroke-opacity="1" stroke-miterlimit="10"/><path stroke-linecap="butt" transform="matrix(0.0679945, 0, 0, -0.0679945, -26.819283, 384.106967)" fill="none" stroke-linejoin="miter" d="M 1910.008345 1897.981118 L 1910.008345 1846.391468 " stroke="#3d4176" stroke-width="20" stroke-opacity="1" stroke-miterlimit="10"/><path stroke-linecap="butt" transform="matrix(0.0679945, 0, 0, -0.0679945, -26.819283, 384.106967)" fill="none" stroke-linejoin="miter" d="M 1959.989409 1897.981118 L 1959.989409 1846.391468 " stroke="#3d4176" stroke-width="20" stroke-opacity="1" stroke-miterlimit="10"/><path stroke-linecap="butt" transform="matrix(0.0679945, 0, 0, -0.0679945, -26.819283, 384.106967)" fill="none" stroke-linejoin="miter" d="M 2010.027922 1897.981118 L 2010.027922 1797.272147 " stroke="#3d4176" stroke-width="20" stroke-opacity="1" stroke-miterlimit="10"/><path stroke-linecap="butt" transform="matrix(0.0679945, 0, 0, -0.0679945, -26.819283, 384.106967)" fill="none" stroke-linejoin="miter" d="M 2062.479314 1897.981118 L 2062.479314 1846.391468 " stroke="#3d4176" stroke-width="20" stroke-opacity="1" stroke-miterlimit="10"/><path stroke-linecap="butt" transform="matrix(0.0679945, 0, 0, -0.0679945, -26.819283, 384.106967)" fill="none" stroke-linejoin="miter" d="M 2112.517828 1897.981118 L 2112.517828 1846.391468 " stroke="#3d4176" stroke-width="20" stroke-opacity="1" stroke-miterlimit="10"/><path stroke-linecap="butt" transform="matrix(0.0679945, 0, 0, -0.0679945, -26.819283, 384.106967)" fill="none" stroke-linejoin="miter" d="M 2162.498892 1897.981118 L 2162.498892 1846.391468 " stroke="#3d4176" stroke-width="20" stroke-opacity="1" stroke-miterlimit="10"/><path stroke-linecap="butt" transform="matrix(0.0679945, 0, 0, -0.0679945, -26.819283, 384.106967)" fill="none" stroke-linejoin="miter" d="M 2212.479955 1897.981118 L 2212.479955 1846.391468 " stroke="#3d4176" stroke-width="20" stroke-opacity="1" stroke-miterlimit="10"/><path stroke-linecap="butt" transform="matrix(0.0679945, 0, 0, -0.0679945, -26.819283, 384.106967)" fill="none" stroke-linejoin="miter" d="M 2262.518469 1897.981118 L 2262.518469 1797.272147 " stroke="#3d4176" stroke-width="20" stroke-opacity="1" stroke-miterlimit="10"/><path stroke-linecap="butt" transform="matrix(0.0679945, 0, 0, -0.0679945, -26.819283, 384.106967)" fill="none" stroke-linejoin="miter" d="M 2315.02731 1897.981118 L 2315.02731 1846.391468 " stroke="#3d4176" stroke-width="20" stroke-opacity="1" stroke-miterlimit="10"/><path stroke-linecap="butt" transform="matrix(0.0679945, 0, 0, -0.0679945, -26.819283, 384.106967)" fill="none" stroke-linejoin="miter" d="M 2365.008374 1897.981118 L 2365.008374 1846.391468 " stroke="#3d4176" stroke-width="20" stroke-opacity="1" stroke-miterlimit="10"/><path stroke-linecap="butt" transform="matrix(0.0679945, 0, 0, -0.0679945, -26.819283, 384.106967)" fill="none" stroke-linejoin="miter" d="M 2414.989438 1897.981118 L 2414.989438 1846.391468 " stroke="#3d4176" stroke-width="20" stroke-opacity="1" stroke-miterlimit="10"/><path stroke-linecap="butt" transform="matrix(0.0679945, 0, 0, -0.0679945, -26.819283, 384.106967)" fill="none" stroke-linejoin="miter" d="M 2465.027951 1897.981118 L 2465.027951 1846.391468 " stroke="#3d4176" stroke-width="20" stroke-opacity="1" stroke-miterlimit="10"/><path stroke-linecap="butt" transform="matrix(0.0679945, 0, 0, -0.0679945, -26.819283, 384.106967)" fill="none" stroke-linejoin="miter" d="M 2515.009015 1897.981118 L 2515.009015 1797.272147 " stroke="#3d4176" stroke-width="20" stroke-opacity="1" stroke-miterlimit="10"/><path stroke-linecap="butt" transform="matrix(0.0679945, 0, 0, -0.0679945, -26.819283, 384.106967)" fill="none" stroke-linejoin="miter" d="M 2567.517857 1897.981118 L 2567.517857 1846.391468 " stroke="#3d4176" stroke-width="20" stroke-opacity="1" stroke-miterlimit="10"/><path stroke-linecap="butt" transform="matrix(0.0679945, 0, 0, -0.0679945, -26.819283, 384.106967)" fill="none" stroke-linejoin="miter" d="M 2617.498921 1897.981118 L 2617.498921 1846.391468 " stroke="#3d4176" stroke-width="20" stroke-opacity="1" stroke-miterlimit="10"/><path stroke-linecap="butt" transform="matrix(0.0679945, 0, 0, -0.0679945, -26.819283, 384.106967)" fill="none" stroke-linejoin="miter" d="M 2667.479985 1897.981118 L 2667.479985 1846.391468 " stroke="#3d4176" stroke-width="20" stroke-opacity="1" stroke-miterlimit="10"/><path stroke-linecap="butt" transform="matrix(0.0679945, 0, 0, -0.0679945, -26.819283, 384.106967)" fill="none" stroke-linejoin="miter" d="M 2717.518498 1897.981118 L 2717.518498 1846.391468 " stroke="#3d4176" stroke-width="20" stroke-opacity="1" stroke-miterlimit="10"/><path stroke-linecap="butt" transform="matrix(0.0679945, 0, 0, -0.0679945, -26.819283, 384.106967)" fill="none" stroke-linejoin="miter" d="M 2767.499562 1897.981118 L 2767.499562 1797.272147 " stroke="#3d4176" stroke-width="20" stroke-opacity="1" stroke-miterlimit="10"/><path stroke-linecap="butt" transform="matrix(0.0679945, 0, 0, -0.0679945, -26.819283, 384.106967)" fill="none" stroke-linejoin="miter" d="M 2820.008403 1897.981118 L 2820.008403 1846.391468 " stroke="#3d4176" stroke-width="20" stroke-opacity="1" stroke-miterlimit="10"/><path stroke-linecap="butt" transform="matrix(0.0679945, 0, 0, -0.0679945, -26.819283, 384.106967)" fill="none" stroke-linejoin="miter" d="M 2869.989467 1897.981118 L 2869.989467 1846.391468 " stroke="#3d4176" stroke-width="20" stroke-opacity="1" stroke-miterlimit="10"/><path stroke-linecap="butt" transform="matrix(0.0679945, 0, 0, -0.0679945, -26.819283, 384.106967)" fill="none" stroke-linejoin="miter" d="M 2920.027981 1897.981118 L 2920.027981 1846.391468 " stroke="#3d4176" stroke-width="20" stroke-opacity="1" stroke-miterlimit="10"/><path stroke-linecap="butt" transform="matrix(0.0679945, 0, 0, -0.0679945, -26.819283, 384.106967)" fill="none" stroke-linejoin="miter" d="M 2970.009044 1897.981118 L 2970.009044 1846.391468 " stroke="#3d4176" stroke-width="20" stroke-opacity="1" stroke-miterlimit="10"/><path stroke-linecap="butt" transform="matrix(0.0679945, 0, 0, -0.0679945, -26.819283, 384.106967)" fill="none" stroke-linejoin="miter" d="M 3019.990108 1897.981118 L 3019.990108 1797.272147 " stroke="#3d4176" stroke-width="20" stroke-opacity="1" stroke-miterlimit="10"/></svg>